<svg id="Layer_1" data-name="Layer 1" xmlns="http://www.w3.org/2000/svg" viewBox="0 0 119.66 20.48"><defs><style>.cls-1{fill:#e0201e;}.cls-2{fill:#17162e;}</style></defs><title>IKDIENA LOGO</title><path class="cls-1" d="M75,134.12v.55H73.42v19.21H75v.55H66.17v-.55h1.59V134.67H66.17v-.55Z" transform="translate(-66.17 -133.95)"/><path class="cls-1" d="M85.31,134.12v.55h-1.6v9.17l.23-.06,8.18-9.11H89.83v-.55h5.08v.55H93.17l-5,5.57,7,13.64h1.57v.55H87.4v-.55h1.36L84,144.62l-.26.06v9.2h1.6v.55H76.46v-.55h1.6V134.67h-1.6v-.55Z" transform="translate(-66.17 -133.95)"/><path class="cls-2" d="M105.84,154.43H97.63v-.55h1.91V134.67H97.63v-.55h9c7.17,0,11.14,2.59,11.14,9.81C117.73,152.11,112.77,154.43,105.84,154.43Zm.46-.55c3.92,0,5.46-2.53,5.46-9v-1.69c0-7-1.8-8.5-5.86-8.5h-.7v19.21Z" transform="translate(-66.17 -133.95)"/><path class="cls-2" d="M128.49,134.12v.55h-1.6v19.21h1.6v.55h-8.85v-.55h1.6V134.67h-1.6v-.55Z" transform="translate(-66.17 -133.95)"/><path class="cls-2" d="M144.9,134.12l.29,5.75h-.52c-1.59-3.8-3-5.11-6.47-5.11h-1v9h1c1.89,0,3.11-1.6,3.6-3.8h.44v8.58h-.5c-.69-2.9-1.8-4-3.83-4h-.69v9.31h1.1a7.33,7.33,0,0,0,7.11-5.69H146l-.24,6.33H129.82v-.64h1.71v-19h-1.71v-.64Z" transform="translate(-66.17 -133.95)"/><path class="cls-2" d="M164.42,154.43h-4.06l-10-18.77v18.22H152v.55h-4v-.55h1.6V134.67H148v-.55h8l7.6,14.57v-14H162v-.55h4v.55h-1.6Z" transform="translate(-66.17 -133.95)"/><path class="cls-2" d="M176.28,147.61h-5.74l-2.24,6.27h2.18v.55H166v-.55h1.36L174.8,134h2.38l7.31,19.93h1.33v.55h-9.48v-.55h2.06ZM170.8,147h5.25l-2.53-7.6Z" transform="translate(-66.17 -133.95)"/></svg>