<?xml version="1.0" encoding="utf-8"?>
<!-- Generator: Adobe Illustrator 23.1.0, SVG Export Plug-In . SVG Version: 6.00 Build 0)  -->
<svg version="1.1" id="Layer_1" xmlns="http://www.w3.org/2000/svg" xmlns:xlink="http://www.w3.org/1999/xlink" x="0px" y="0px"
	 viewBox="0 0 119.7 20.5" style="enable-background:new 0 0 119.7 20.5;" xml:space="preserve">
<style type="text/css">
	.st0{fill:#E0201E;}
	.st1{fill:#FFFFFF;}
</style>
<title>IKDIENA LOGO</title>
<path class="st0" d="M8.8,0.2v0.6H7.3v19.2h1.6v0.6H0v-0.6h1.6V0.7H0V0.2H8.8z"/>
<path class="st0" d="M19.1,0.2v0.6h-1.6v9.2l0.2-0.1L26,0.7h-2.3V0.2h5.1v0.6H27l-5,5.6l7,13.6h1.6v0.6h-9.3v-0.6h1.4l-4.8-9.3
	l-0.3,0.1v9.2h1.6v0.6h-8.9v-0.6h1.6V0.7h-1.6V0.2H19.1z"/>
<path class="st1" d="M39.7,20.5h-8.2v-0.6h1.9V0.7h-1.9V0.2h9c7.2,0,11.1,2.6,11.1,9.8C51.6,18.2,46.6,20.5,39.7,20.5z M40.1,19.9
	c3.9,0,5.5-2.5,5.5-9V9.2c0-7-1.8-8.5-5.9-8.5H39V20L40.1,19.9z"/>
<path class="st1" d="M62.3,0.2v0.6h-1.6v19.2h1.6v0.6h-8.8v-0.6h1.6V0.7h-1.6V0.2H62.3z"/>
<path class="st1" d="M78.7,0.2L79,5.9h-0.5c-1.6-3.8-3-5.1-6.5-5.1h-1v9h1c1.9,0,3.1-1.6,3.6-3.8h0.4v8.6h-0.5c-0.7-2.9-1.8-4-3.8-4
	H71v9.3h1.1c3.4,0,6.3-2.4,7.1-5.7h0.6l-0.2,6.3H63.7v-0.6h1.7v-19h-1.7V0.3L78.7,0.2z"/>
<path class="st1" d="M98.3,20.5h-4.1l-10-18.8v18.2h1.6v0.6h-4v-0.6h1.6V0.7h-1.6V0.2h8l7.6,14.6v-14h-1.6V0.2h4v0.6h-1.6L98.3,20.5
	z"/>
<path class="st1" d="M110.1,13.7h-5.7l-2.2,6.3h2.2v0.6h-4.5v-0.6h1.4l7.4-19.9h2.4l7.3,19.9h1.3v0.6h-9.5V20h2.1L110.1,13.7z
	 M104.6,13.1h5.3l-2.5-7.6L104.6,13.1z"/>
</svg>
