<svg xmlns="http://www.w3.org/2000/svg" width="26.252" height="25.617" viewBox="0 0 26.252 25.617">
  <g id="Group_786" data-name="Group 786" transform="translate(-24.5 -2463.393)">
    <path id="Path_999" data-name="Path 999" d="M-667.136,984.713c-2.385,0-4.769.015-7.153,0a4.976,4.976,0,0,1-5.217-4.259,5.1,5.1,0,0,1,3.489-5.683,1.879,1.879,0,0,0,.956-.928c2.462-5.866,9.273-7.193,13.7-2.677a2.294,2.294,0,0,0,1.453.6,6.553,6.553,0,0,1,6.574,6.468,6.454,6.454,0,0,1-6.408,6.465C-662.2,984.753-664.67,984.711-667.136,984.713Zm-6.505-8.029c-.349,0-.592,0-.835,0a2.9,2.9,0,0,0-3.018,2.777,2.888,2.888,0,0,0,2.752,3.178c5.1.065,10.209.1,15.31-.015a4.311,4.311,0,0,0,3.95-5.114,4.326,4.326,0,0,0-5.177-3.542,1.421,1.421,0,0,1-1.761-.752,5.707,5.707,0,0,0-6.111-2.558,5.8,5.8,0,0,0-4.775,4.6C-673.416,975.693-673.512,976.13-673.641,976.684Z" transform="translate(704.082 1494.928)" fill="#080f30"/>
    <path id="Path_1034" data-name="Path 1034" d="M-662.361,1055.226l-.886,1.11-.762-1.109-1.46-.217.611-1.275-.585-1.255,1.455-.209.846-1.128.761,1.181,1.474.2-.6,1.229.6,1.239Z" transform="translate(693.455 1432.674)" fill="#080f30"/>
    <path id="Path_1035" data-name="Path 1035" d="M-615.868,1043.1l-.787,1.119-.862-1.173-1.427-.151.553-1.306-.535-1.274,1.416-.144.888-1.137.747,1.132,1.441.2-.593,1.292.581,1.247Z" transform="translate(658.423 1441.79)" fill="#080f30"/>
  </g>
</svg>
